<?xml version="1.0" encoding="utf-8"?>
<!-- Generator: Adobe Illustrator 24.0.0, SVG Export Plug-In . SVG Version: 6.00 Build 0)  -->
<svg version="1.1" id="Layer_1" xmlns="http://www.w3.org/2000/svg" xmlns:xlink="http://www.w3.org/1999/xlink" x="0px" y="0px"
	 viewBox="0 0 1920 492" style="enable-background:new 0 0 1920 492;" xml:space="preserve">
<style type="text/css">
	.st0{fill:#282828;}
</style>
<g>
	<path class="st0" d="M1895.4,132.5c2.8,0,4.2-1.2,4.2-3.5v-0.1c0-2.5-1.5-3.4-4.2-3.4h-3.1v7.1H1895.4z M1887,121.3h8.5
		c5.6,0,9.3,2.3,9.3,7.3v0.1c0,3.7-2.1,5.7-5,6.5l6.4,10.3h-5.5l-5.9-9.4h-2.5v9.4h-5.3V121.3z M1915.6,133.7
		c0-12.1-8.4-20.5-20.2-20.5c-11.7,0-20.2,8.5-20.2,20.6c0,12.2,8.9,20.4,20.2,20.4C1906.8,154.2,1915.6,145.8,1915.6,133.7
		 M1870.8,133.8c0-13.6,10.9-24.6,24.6-24.6c14,0,24.6,10.9,24.6,24.5c0,13.8-10.9,24.5-24.6,24.5
		C1881.8,158.2,1870.8,147.7,1870.8,133.8"/>
	<path class="st0" d="M86.2,219.6h124.6c-2.7-38.4-25.8-60.4-60.9-60.4C114.8,159.2,91.7,181.2,86.2,219.6 M291.6,307.5
		c-16.5,52.2-63.7,93.3-138.9,93.3C58.2,400.8,0,334.9,0,249.8c0-85.1,58.2-151,149.9-151c72.5,0,119.7,38.4,137.8,95.5
		c6.6,20.9,9.3,45,9.3,69.2v13.7H86.2c2.7,35.7,28.6,63.1,66.4,63.1c27.5,0,45-16.5,48.9-32.9H291.6z"/>
	<path class="st0" d="M303,112.6C308.5,46.7,360.6,0,440.3,0c85.1,0,134.5,54.9,134.5,115.3c0,52.2-22,86.2-67.5,126.3l-86.8,76.9
		H583v74.1H303c0-47.3,19.7-92.4,54.4-124.4l91.1-84.2c28.6-26.4,38.4-43.9,38.4-65.9c0-24.7-11-49.4-46.7-49.4
		c-24.7,0-45.6,13.7-48.3,43.9H303z"/>
	<path class="st0" d="M749.8,164.7c-51.1,0-69.2,46.7-69.2,85.1c0,38.4,18.1,85.1,69.2,85.1c51.1,0,69.2-46.7,69.2-85.1
		C819,211.4,800.9,164.7,749.8,164.7 M749.8,400.8c-94.4,0-152.6-65.9-152.6-151s58.2-151,152.6-151s152.6,65.9,152.6,151
		S844.3,400.8,749.8,400.8"/>
	<path class="st0" d="M1076.6,334.9c38.4,0,70.3-24.7,70.3-85.1s-31.8-85.1-70.3-85.1c-33.5,0-70.3,24.7-70.3,85.1
		S1043.1,334.9,1076.6,334.9 M1009,140c13.7-22,43.9-41.2,87.9-41.2c86.2,0,133.4,68.6,133.4,151c0,82.4-47.2,151-133.4,151
		c-43.9,0-74.1-19.2-87.9-41.2v131.8h-83.5V107.1h83.5V140z"/>
	<path class="st0" d="M1339.7,219.6h124.6c-2.7-38.4-25.8-60.4-60.9-60.4C1368.2,159.2,1345.1,181.2,1339.7,219.6 M1545,307.5
		c-16.5,52.2-63.7,93.3-138.9,93.3c-94.4,0-152.6-65.9-152.6-151c0-85.1,58.2-151,149.9-151c72.5,0,119.7,38.4,137.8,95.5
		c6.6,20.9,9.3,45,9.3,69.2v13.7h-210.8c2.7,35.7,28.6,63.1,66.4,63.1c27.5,0,45-16.5,48.9-32.9H1545z"/>
	<path class="st0" d="M1657.2,137.3c19.2-24.7,48.9-38.4,86.2-38.4c72.5,0,117.5,43.9,117.5,120.8v173h-83.5V225.1
		c0-35.7-15.9-57.7-53.3-57.7c-40.1,0-67,27.5-67,74.1v151h-83.5V107.1h83.5V137.3z"/>
</g>
</svg>
